<svg id="visual" viewBox="0 0 1920 1080" width="1920" height="1080" xmlns="http://www.w3.org/2000/svg" xmlns:xlink="http://www.w3.org/1999/xlink" version="1.1"><rect width="1920" height="1080" fill="#10b981"></rect><g><g transform="translate(1833 624)"><path d="M245.5 -200C287.8 -142.7 270.8 -42.4 241 41.6C211.2 125.7 168.5 193.4 104.6 228.6C40.7 263.7 -44.4 266.3 -118.1 234.8C-191.9 203.3 -254.3 137.8 -268.4 64.5C-282.5 -8.7 -248.3 -89.7 -195.5 -149.4C-142.8 -209 -71.4 -247.2 15.1 -259.2C101.6 -271.3 203.2 -257.2 245.5 -200Z" fill="#059669"></path></g><g transform="translate(350 775)"><path d="M134.9 -108.5C166.8 -67.6 179.1 -11.9 168.3 39.6C157.5 91.1 123.5 138.6 74.2 167.4C24.9 196.3 -39.8 206.6 -92.9 184.3C-146 162 -187.5 107.2 -193 52.7C-198.5 -1.7 -168 -55.6 -129.8 -98C-91.6 -140.3 -45.8 -171 2.8 -173.2C51.5 -175.5 103 -149.3 134.9 -108.5Z" fill="#059669"></path></g><g transform="translate(802 125)"><path d="M184 -139.4C220.9 -100.5 221 -25 199.5 36.2C178.1 97.5 135.2 144.5 79.5 175.3C23.8 206 -44.7 220.5 -94.9 196.5C-145.1 172.6 -177.1 110.1 -187.7 47.5C-198.3 -15.2 -187.5 -78.1 -152.7 -116.4C-117.8 -154.8 -58.9 -168.7 7.3 -174.6C73.6 -180.4 147.2 -178.2 184 -139.4Z" fill="#059669"></path></g><g transform="translate(1105 1063)"><path d="M157.1 -123.1C190.3 -83.6 194.8 -19.1 175.6 29.9C156.3 78.9 113.2 112.4 64.6 136.9C15.9 161.4 -38.4 177 -88.8 161.6C-139.2 146.1 -185.7 99.5 -192.3 49.9C-198.8 0.2 -165.4 -52.5 -126.7 -93.2C-88 -133.9 -44 -162.5 9 -169.6C61.9 -176.8 123.9 -162.5 157.1 -123.1Z" fill="#059669"></path></g><g transform="translate(17 29)"><path d="M128.8 -103.9C162.5 -60.4 182.4 -7.1 172.2 40C162 87.1 121.7 128.1 73.6 150.3C25.4 172.6 -30.6 176.1 -79.5 156C-128.4 135.9 -170.2 92.2 -186 38.1C-201.9 -16 -191.8 -80.5 -156.5 -124.4C-121.1 -168.2 -60.6 -191.5 -6.5 -186.3C47.5 -181.1 95 -147.4 128.8 -103.9Z" fill="#059669"></path></g></g></svg>