<?xml version="1.0" encoding="UTF-8"?>
<!-- Created with Inkscape (http://www.inkscape.org/) -->
<svg width="800" height="800" version="1.1" viewBox="0 0 211.67 211.67" xmlns="http://www.w3.org/2000/svg">
 <rect width="211.67" height="211.67" ry="43.27" fill="#fff" stroke-width="0"/>
 <g transform="matrix(.55614 0 0 .55614 .62533 -6.6398)">
  <g>
   <circle cx="133.2" cy="305.88" r="23.439" fill="#4b5563"/>
   <circle cx="302.27" cy="305.88" r="23.439" fill="#4b5563"/>
   <path d="m326.6 267.64c0 2.842-1.153 5.428-3.03 7.307-1.863 1.881-4.449 3.031-7.312 3.031h-173.02c-5.052 0-9.325-3.238-10.862-7.756l-0.188-0.553-3.931-12.373-51.057-160.32-2.293-7.205c-1.725-5.445 1.272-11.256 6.722-12.996 1.034-0.33 2.102-0.486 3.136-0.486 4.379 0 8.447 2.795 9.863 7.209l1.881 5.906 6.666 20.916 6.588 20.683 33.665 105.74 4.189 13.135c1.431 3.947 4.981 6.877 9.289 7.414h159.35c5.709 0 10.343 4.617 10.343 10.344z" fill="#6b7280"/>
   <path d="m326.6 137.41v72.23c0 14.961-12.113 27.094-27.074 27.094h-156.1l-33.661-105.74h214.13c0.647 0 1.277-0.057 1.897-0.17 0.526 2.106 0.799 4.315 0.799 6.588z" fill="#9ca3af"/>
   <path d="m100.92 85.506c0 2.863-1.154 5.449-3.032 7.311-1.862 1.879-4.448 3.033-7.31 3.033h-45.682c-5.707 0-10.343-4.637-10.343-10.344 0-2.861 1.154-5.447 3.033-7.309 1.862-1.879 4.447-3.033 7.31-3.033h45.682c5.706 0 10.342 4.639 10.342 10.342z" fill="#4b5563"/>
  </g>
  <path d="m261.32 158.24v50.148c0 5.703-4.643 10.336-10.348 10.336-2.856 0-5.44-1.156-7.301-3.035-1.879-1.852-3.036-4.445-3.036-7.301v-50.148c0-5.703 4.633-10.336 10.337-10.336 2.867 0 5.45 1.156 7.312 3.035 1.88 1.86 3.036 4.446 3.036 7.301z" fill="#f3f4f6"/>
  <g fill="#f3f4f6">
   <path d="m172.03 158.24v50.148c0 5.703-4.633 10.336-10.347 10.336-2.857 0-5.441-1.156-7.302-3.035-1.88-1.852-3.036-4.445-3.036-7.301v-50.148c0-5.703 4.633-10.336 10.338-10.336 2.866 0 5.451 1.156 7.321 3.035 1.871 1.86 3.026 4.446 3.026 7.301z"/>
   <path d="m216 158.24v50.148c0 5.703-4.643 10.336-10.347 10.336-2.856 0-5.441-1.156-7.312-3.035-1.879-1.852-3.025-4.445-3.025-7.301v-50.148c0-5.703 4.633-10.336 10.337-10.336 2.866 0 5.45 1.156 7.312 3.035 1.88 1.86 3.035 4.446 3.035 7.301z"/>
   <path d="m307.98 158.24v50.148c0 5.703-4.632 10.336-10.337 10.336-2.856 0-5.45-1.156-7.312-3.035-1.88-1.852-3.035-4.445-3.035-7.301v-50.148c0-5.703 4.642-10.336 10.347-10.336 2.856 0 5.45 1.156 7.312 3.035 1.869 1.86 3.025 4.446 3.025 7.301z"/>
  </g>
  <g>
   <path d="m163.76 268.53c2.061 1.988 3.118 4.613 3.155 7.258 0.06 2.645-0.905 5.309-2.894 7.367l-18.445 19.117c-3.961 4.105-10.518 4.221-14.623 0.26-2.061-1.988-3.123-4.613-3.156-7.258-0.059-2.646 0.907-5.309 2.893-7.367l18.445-19.115c3.961-4.105 10.519-4.223 14.625-0.262z" fill="#4b5563"/>
   <path d="m302.94 265.64c2.862-0.043 5.463 1.076 7.353 2.924 1.907 1.834 3.1 4.404 3.141 7.266l0.391 26.562c0.083 5.703-4.484 10.406-10.19 10.49-2.862 0.043-5.466-1.072-7.352-2.924-1.908-1.834-3.101-4.404-3.143-7.264l-0.39-26.561c-0.085-5.704 4.484-10.409 10.19-10.493z" fill="#4b5563"/>
   <path d="m334.24 120.66c0 2.857-1.156 5.451-3.036 7.312-1.438 1.455-3.308 2.471-5.403 2.855-0.62 0.113-1.25 0.17-1.897 0.17h-214.13l-6.589-20.676h220.72c5.703 1e-3 10.336 4.636 10.336 10.339z" fill="#6b7280"/>
  </g>
  <g fill="#9ca3af">
   <path d="m302.94 93.088h31.145c5.353 0 9.7126 3.729 9.7126 8.309 0 2.303-1.087 4.379-2.8495 5.871-1.7462 1.512-4.1807 2.439-6.8619 2.439h-31.145" stroke-width="1.0811"/>
   <path d="m310.87 109.71h-11.148c-5.0895 0-9.2294-3.729-9.2294-8.311 0-2.293 1.0297-4.375 2.708-5.871 1.6595-1.508 3.9654-2.438 6.5213-2.438h11.148" stroke-width="1.0539"/>
  </g>
 </g>
</svg>
